<svg xmlns="http://www.w3.org/2000/svg" width="18" height="21" viewBox="0 0 18 21"><path d="M11.518-7.509C15.282-7.509,18-9.868,18-13.547,18-17.2,15.282-19.5,11.518-19.5H5.063a.563.563,0,0,0-.562.563v9.563H.563A.563.563,0,0,0,0-8.812v.75A.563.563,0,0,0,.563-7.5H4.5v2.719H.563A.563.563,0,0,0,0-4.219v.656A.563.563,0,0,0,.563-3H4.5V.938a.563.563,0,0,0,.563.563H6A.563.563,0,0,0,6.561.938V-3h7.876A.563.563,0,0,0,15-3.562v-.656a.563.563,0,0,0-.562-.562H6.561V-7.509ZM6.561-17.644h4.905c2.778,0,4.6,1.5,4.6,4.088,0,2.616-1.822,4.17-4.63,4.17H6.561Z" transform="translate(0 19.5)" fill="red"/></svg>