<svg xmlns="http://www.w3.org/2000/svg" width="80" height="91.429" viewBox="0 0 80 91.429"><path d="M28.571,9V.429a4.275,4.275,0,0,0-4.286-4.286H17.143V-19.571A1.433,1.433,0,0,0,15.714-21H12.857a1.433,1.433,0,0,0-1.429,1.429V-3.857H4.286A4.275,4.275,0,0,0,0,.429V9a4.275,4.275,0,0,0,4.286,4.286h7.143V69a1.433,1.433,0,0,0,1.429,1.429h2.857A1.433,1.433,0,0,0,17.143,69V13.286h7.143A4.275,4.275,0,0,0,28.571,9ZM22.857,7.571H5.714V1.857H22.857ZM50,36.143H42.857V-19.571A1.433,1.433,0,0,0,41.429-21H38.571a1.433,1.433,0,0,0-1.429,1.429V36.143H30a4.275,4.275,0,0,0-4.286,4.286V49A4.275,4.275,0,0,0,30,53.286h7.143V69a1.433,1.433,0,0,0,1.429,1.429h2.857A1.433,1.433,0,0,0,42.857,69V53.286H50A4.275,4.275,0,0,0,54.286,49V40.429A4.275,4.275,0,0,0,50,36.143ZM48.571,47.571H31.429V41.857H48.571Zm27.143-40H68.571V-19.571A1.433,1.433,0,0,0,67.143-21H64.286a1.433,1.433,0,0,0-1.429,1.429V7.571H55.714a4.275,4.275,0,0,0-4.286,4.286v8.571a4.275,4.275,0,0,0,4.286,4.286h7.143V69a1.433,1.433,0,0,0,1.429,1.429h2.857A1.433,1.433,0,0,0,68.571,69V24.714h7.143A4.275,4.275,0,0,0,80,20.429V11.857A4.275,4.275,0,0,0,75.714,7.571ZM74.286,19H57.143V13.286H74.286Z" transform="translate(0 21)" fill="#c7c7c7"/></svg>